<svg id="Capa_1" data-name="Capa 1" xmlns="http://www.w3.org/2000/svg" viewBox="0 0 800 600"><defs><style>.cls-1{fill:#232323;}.cls-2{fill:#dcf8ca;}</style></defs><path class="cls-1" d="M184,444.72,184.16,149a15.13,15.13,0,0,0,.35-3.73c0-6.94,2-13.42,4.6-19.72A70.56,70.56,0,0,1,238.8,84.36a50.3,50.3,0,0,1,8.59-.71h1.91c.72-.09,1.46.2,2.16-.17l293,.16a7.1,7.1,0,0,0,2.43.17h1.64c8.18,0,15.8,2.2,23.15,5.61a69.72,69.72,0,0,1,23.09,17.34,67.65,67.65,0,0,1,15.7,31,45.43,45.43,0,0,1,.7,10v2.15L611,444.23v2.15c.36,12.36-3.9,23.29-10.55,33.42-8.83,13.46-21,22.59-36.11,28a52.93,52.93,0,0,1-17.14,2.83h-4.29l-290.32-.16H248c-15.17-.25-28.08-6.22-39.56-15.73a69.05,69.05,0,0,1-21.24-30.85,44,44,0,0,1-2.84-15.4A15.82,15.82,0,0,0,184,444.72Z"/><path class="cls-2" d="M396.87,363.36c0-26.29,0-52.58-.11-78.87a4.52,4.52,0,0,1,2.67-4.48c8.95-5.08,17.82-10.28,26.71-15.45,1-.57,1.93-1.23,3.37-2.15-1.92-1.14-3.24-1.93-4.57-2.7-8.32-4.82-16.6-9.72-25-14.39a5.5,5.5,0,0,1-3.21-5.57c.08-26.07,0-52.14,0-78.21,0-1.07.12-2.14.21-3.69,1.3.65,2.18,1,3,1.51q43,24.76,86.06,49.51a5.24,5.24,0,0,1,3,5.27q-.12,48,.07,96c0,3-.84,4.61-3.44,6.1-21,12-41.85,24.12-62.76,36.21l-25.85,14.92C397,365.53,396.87,364.45,396.87,363.36ZM451,273.78c-10.26,5.93-20.47,12-30.79,17.79a4.92,4.92,0,0,0-2.91,5c.14,10.3.06,20.59.07,30.89v4.32c1.41-.7,2.36-1.1,3.25-1.61,15.22-8.77,30.44-17.51,45.59-26.37a4.77,4.77,0,0,0,2.24-3.24c.14-11.74.06-23.49,0-35.24a6.17,6.17,0,0,0-.52-1.25C462.16,267.38,456.56,270.56,451,273.78ZM417.4,230.15a4.1,4.1,0,0,0,2,2.7c9.36,5.49,18.81,10.83,28.19,16.28a4.56,4.56,0,0,0,5.24.05c4.39-2.69,9-5.05,13.3-7.83a5.75,5.75,0,0,0,2.34-3.86,102.37,102.37,0,0,0-.11-12.75,4.84,4.84,0,0,0-1.88-3.45c-15.65-9.13-31.39-18.12-47.11-27.13-.45-.25-1-.4-2.07-.85C417.3,206,417.26,218.08,417.4,230.15Z"/><path class="cls-2" d="M392.12,367.41c-1.7-.94-3.06-1.66-4.38-2.42q-42.11-24.35-84.25-48.65a5.24,5.24,0,0,1-3.1-5.24q.17-48.5.06-97a4.78,4.78,0,0,1,2.68-4.81q43.06-24.71,86-49.57c.94-.54,1.94-1,3.41-1.68,0,1.62,0,2.7,0,3.77,0,26.18-.06,52.37,0,78.55,0,2.65-1,4-3.17,5.21-9.7,5.48-19.3,11.13-29.31,16.94a23.78,23.78,0,0,0,2,1.45c9.32,5.47,18.69,10.88,27.95,16.46a5.09,5.09,0,0,1,2.37,3.48c.11,27.3.06,54.6,0,81.9A12.13,12.13,0,0,1,392.12,367.41ZM372.21,193.54a18.69,18.69,0,0,0-2.33.87c-15.71,9-31.43,18-47.05,27.18a5.07,5.07,0,0,0-1.86,3.78c-.15,11.07-.09,22.15-.07,33.23a15.17,15.17,0,0,0,.33,2.21,4.78,4.78,0,0,0,1.22-.27q24-13.81,47.89-27.71a4,4,0,0,0,1.78-2.85C372.24,218,372.21,206.06,372.21,193.54Zm-.72,138.39c.38-.7.57-.89.57-1.07,0-11.85.11-23.7,0-35.55a4,4,0,0,0-1.81-2.78Q355.7,283.92,341,275.61a4.34,4.34,0,0,0-3.58,0c-4.92,2.63-9.79,5.39-14.51,8.38a5.28,5.28,0,0,0-2,3.71c-.21,4.13.1,8.28,0,12.41-.07,2.12.8,3.15,2.57,4.15,9.05,5.11,18,10.36,27,15.55Z"/><path class="cls-2" d="M242.29,416.36a9.08,9.08,0,0,1,5.48,8.88q0,5.1-3.42,7.76a14,14,0,0,1-8.9,2.66H221.9a.62.62,0,0,1-.64-.64l0-36.35a.61.61,0,0,1,.18-.45.62.62,0,0,1,.46-.19H235c3.91,0,6.92.85,9,2.54s3.17,4.23,3.17,7.64a7.89,7.89,0,0,1-5,7.84C242.07,416.15,242.07,416.25,242.29,416.36Zm-2.4,12.37a5.29,5.29,0,0,0,1.64-4.09,5.22,5.22,0,0,0-1.66-4.11,6.55,6.55,0,0,0-4.52-1.48h-7.58c-.18,0-.27.08-.27.26V430a.23.23,0,0,0,.27.27h7.68A6.33,6.33,0,0,0,239.89,428.73Zm-12.38-25.06v9.95c0,.17.08.26.26.26H235a6.8,6.8,0,0,0,4.49-1.37,4.66,4.66,0,0,0,1.64-3.79,4.88,4.88,0,0,0-1.64-3.9A6.58,6.58,0,0,0,235,403.4h-7.26A.24.24,0,0,0,227.51,403.67Z"/><path class="cls-2" d="M254.88,435.49a.65.65,0,0,1-.18-.46l0-36.35a.65.65,0,0,1,.64-.64h4.95a.62.62,0,0,1,.46.19.63.63,0,0,1,.18.45V430a.23.23,0,0,0,.27.27h18a.58.58,0,0,1,.45.19.6.6,0,0,1,.19.45V435a.62.62,0,0,1-.19.46.65.65,0,0,1-.46.18H255.34A.65.65,0,0,1,254.88,435.49Z"/><path class="cls-2" d="M309.43,435.16l-1.77-5.75c-.07-.14-.16-.22-.27-.22H293.2q-.17,0-.27.21l-1.78,5.75a.68.68,0,0,1-.7.54h-5.38a.62.62,0,0,1-.48-.19.57.57,0,0,1,0-.57l11.68-36.33a.68.68,0,0,1,.7-.54h6.72a.67.67,0,0,1,.7.54L316,435a.54.54,0,0,1,0,.27c0,.32-.19.48-.59.48h-5.37A.68.68,0,0,1,309.43,435.16ZM294.81,424.3h10.92c.21,0,.28-.11.21-.32l-5.53-18c0-.14-.09-.21-.16-.21s-.12.07-.16.21l-5.5,18C294.56,424.19,294.63,424.3,294.81,424.3Z"/><path class="cls-2" d="M326.15,434.55a11.38,11.38,0,0,1-4.73-4.43,12.89,12.89,0,0,1-1.66-6.62V410.22a12.85,12.85,0,0,1,1.66-6.61,11.36,11.36,0,0,1,4.74-4.41,17.1,17.1,0,0,1,14.14,0,11.11,11.11,0,0,1,4.73,4.25,12,12,0,0,1,1.66,6.34.62.62,0,0,1-.19.46.61.61,0,0,1-.45.19l-4.95.26c-.43,0-.65-.19-.65-.59a6.83,6.83,0,0,0-2-5.11,7.11,7.11,0,0,0-5.24-1.93A7.21,7.21,0,0,0,328,405a6.82,6.82,0,0,0-2,5.1v13.71a6.73,6.73,0,0,0,2,5.06,7.28,7.28,0,0,0,5.27,1.94,7.2,7.2,0,0,0,5.24-1.91,6.75,6.75,0,0,0,2-5.08c0-.39.21-.59.64-.59l4.95.22a.68.68,0,0,1,.46.16.49.49,0,0,1,.18.38,12.21,12.21,0,0,1-1.67,6.42,11,11,0,0,1-4.73,4.27,15.54,15.54,0,0,1-7,1.5A15.2,15.2,0,0,1,326.15,434.55Z"/><path class="cls-2" d="M353.54,435.54a.66.66,0,0,1-.19-.46l0-36.35a.64.64,0,0,1,.19-.45.62.62,0,0,1,.46-.19H359a.64.64,0,0,1,.46.19.62.62,0,0,1,.19.46v16.07a.22.22,0,0,0,.11.22.16.16,0,0,0,.21,0l14-16.5a1,1,0,0,1,.81-.38h5.59c.36,0,.54.13.54.38a.92.92,0,0,1-.17.43L368.36,414c-.1.15-.12.27-.05.38L381.52,435a1.68,1.68,0,0,1,.11.37c0,.25-.18.38-.53.38h-5.65a.84.84,0,0,1-.75-.43l-10.64-16.57c-.14-.21-.27-.23-.38-.05l-4,4.62a.86.86,0,0,0-.1.38v11.39a.62.62,0,0,1-.19.46.6.6,0,0,1-.46.19H354A.63.63,0,0,1,353.54,435.54Z"/><path class="cls-2" d="M418.47,416.46Q424,419,424,425.33q0,5.12-3.42,7.77a14.09,14.09,0,0,1-8.9,2.66H398.08a.62.62,0,0,1-.46-.19.63.63,0,0,1-.18-.46l0-36.34a.65.65,0,0,1,.64-.65h13.12c3.91,0,6.92.85,9,2.53s3.17,4.23,3.17,7.64a7.91,7.91,0,0,1-4.95,7.85C418.25,416.24,418.25,416.35,418.47,416.46Zm-2.4,12.36a5.92,5.92,0,0,0,0-8.2,6.65,6.65,0,0,0-4.52-1.48H404c-.18,0-.26.09-.26.27v10.64a.24.24,0,0,0,.27.27h7.69A6.26,6.26,0,0,0,416.07,428.82Zm-12.38-25.06v9.95a.24.24,0,0,0,.27.27h7.25a6.75,6.75,0,0,0,4.49-1.37,4.67,4.67,0,0,0,1.65-3.79,4.94,4.94,0,0,0-1.64-3.9,6.61,6.61,0,0,0-4.49-1.42H404A.24.24,0,0,0,403.69,403.76Z"/><path class="cls-2" d="M451.25,435.3l-7.08-15.49a.34.34,0,0,0-.32-.22h-6.46a.24.24,0,0,0-.27.27v15.27a.63.63,0,0,1-.18.45.62.62,0,0,1-.46.19h-5a.64.64,0,0,1-.45-.19.62.62,0,0,1-.19-.46l0-36.34a.62.62,0,0,1,.19-.46.64.64,0,0,1,.46-.19h14.78a12,12,0,0,1,5.8,1.37,9.72,9.72,0,0,1,3.93,3.88,11.54,11.54,0,0,1,1.39,5.72,10.42,10.42,0,0,1-1.91,6.32,9.86,9.86,0,0,1-5.3,3.63.17.17,0,0,0-.16.1.28.28,0,0,0,0,.22L457.65,435a.85.85,0,0,1,.11.32c0,.29-.2.43-.59.43H452A.78.78,0,0,1,451.25,435.3Zm-14.12-31.52v10.7a.23.23,0,0,0,.27.27h8.06a5.76,5.76,0,0,0,4.17-1.53,5.4,5.4,0,0,0,1.59-4.05,5.47,5.47,0,0,0-1.59-4.09,5.68,5.68,0,0,0-4.16-1.57H437.4A.24.24,0,0,0,437.13,403.78Z"/><path class="cls-2" d="M464,435.6a.62.62,0,0,1-.19-.46l0-36.35a.6.6,0,0,1,.19-.45.58.58,0,0,1,.45-.19h4.95a.66.66,0,0,1,.46.19.65.65,0,0,1,.18.46l0,36.34a.65.65,0,0,1-.18.46.66.66,0,0,1-.46.19h-4.95A.61.61,0,0,1,464,435.6Z"/><path class="cls-2" d="M478.11,435.61a.63.63,0,0,1-.19-.46l0-36.35a.58.58,0,0,1,.19-.45.62.62,0,0,1,.46-.19h13.12a16.12,16.12,0,0,1,6.72,1.35,10.26,10.26,0,0,1,4.48,3.85,10.64,10.64,0,0,1,1.59,5.83v15.59a10.65,10.65,0,0,1-1.59,5.84,10.39,10.39,0,0,1-4.49,3.84,16,16,0,0,1-6.73,1.34H478.57A.65.65,0,0,1,478.11,435.61Zm6.32-5.19H492a5.86,5.86,0,0,0,4.54-1.8,6.92,6.92,0,0,0,1.75-4.81v-13.6a6.77,6.77,0,0,0-1.72-4.87,6.1,6.1,0,0,0-4.62-1.8h-7.47a.24.24,0,0,0-.27.27l0,26.34A.24.24,0,0,0,484.43,430.42Z"/><path class="cls-2" d="M516.58,434.66a11.39,11.39,0,0,1-4.73-4.49,13.18,13.18,0,0,1-1.66-6.67v-13a13.24,13.24,0,0,1,1.67-6.7,11.39,11.39,0,0,1,4.74-4.45,15.18,15.18,0,0,1,7.09-1.59,15,15,0,0,1,7,1.57,11.6,11.6,0,0,1,4.7,4.24,11.34,11.34,0,0,1,1.67,6.08v.43a.65.65,0,0,1-.65.65h-4.89a.62.62,0,0,1-.46-.19.58.58,0,0,1-.19-.45v-.27a6.31,6.31,0,0,0-2-4.79,8.15,8.15,0,0,0-10.51.08,6.93,6.93,0,0,0-2,5.18v13.45a6.77,6.77,0,0,0,2.1,5.19,7.65,7.65,0,0,0,5.43,2,7.25,7.25,0,0,0,5.08-1.69,6,6,0,0,0,1.86-4.65V421.2a.24.24,0,0,0-.27-.27H524a.63.63,0,0,1-.46-.18.62.62,0,0,1-.19-.46v-4a.62.62,0,0,1,.19-.46.66.66,0,0,1,.46-.19h12.42a.66.66,0,0,1,.46.19.65.65,0,0,1,.18.46v6.88q0,6.18-3.64,9.62t-9.76,3.44A15.18,15.18,0,0,1,516.58,434.66Z"/><path class="cls-2" d="M569.37,403.39a.62.62,0,0,1-.46.19H550.57c-.18,0-.26.09-.26.27v10.05a.23.23,0,0,0,.27.27h12.31a.65.65,0,0,1,.65.65v4.08a.62.62,0,0,1-.19.46.58.58,0,0,1-.45.19H550.57a.23.23,0,0,0-.27.27v10.38c0,.18.09.26.27.26l18.33,0a.65.65,0,0,1,.46.18.66.66,0,0,1,.19.46v4.09a.64.64,0,0,1-.19.45.62.62,0,0,1-.46.19H544.7a.65.65,0,0,1-.65-.65l0-36.34a.62.62,0,0,1,.19-.46.66.66,0,0,1,.46-.19l24.19,0a.62.62,0,0,1,.46.19.61.61,0,0,1,.18.45v4.09A.61.61,0,0,1,569.37,403.39Z"/></svg>